<svg width="100" height="100" viewBox="0 0 100 100" fill="none" xmlns="http://www.w3.org/2000/svg">
<g clip-path="url(#clip0_221_2)">
<path d="M93.9164 26.7498C93.4215 24.7724 92.4135 22.9606 90.9942 21.4974C89.5749 20.0342 87.7946 18.9714 85.8331 18.4165C78.6664 16.6665 49.9998 16.6665 49.9998 16.6665C49.9998 16.6665 21.3331 16.6665 14.1664 18.5832C12.205 19.1381 10.4247 20.2008 9.00539 21.664C7.58609 23.1272 6.57806 24.939 6.08311 26.9165C4.77151 34.1897 4.12993 41.5678 4.16644 48.9582C4.11969 56.4042 4.76131 63.8386 6.08311 71.1665C6.62877 73.0825 7.65939 74.8254 9.07538 76.2268C10.4914 77.6282 12.2449 78.6407 14.1664 79.1665C21.3331 81.0832 49.9998 81.0832 49.9998 81.0832C49.9998 81.0832 78.6664 81.0832 85.8331 79.1665C87.7946 78.6116 89.5749 77.5488 90.9942 76.0856C92.4135 74.6225 93.4215 72.8106 93.9164 70.8332C95.2179 63.6148 95.8595 56.2929 95.8331 48.9582C95.8799 41.5122 95.2382 34.0777 93.9164 26.7498Z" stroke="#FF0A0A" stroke-width="2" stroke-linecap="round" stroke-linejoin="round"/>
<path d="M40.625 62.5835L64.5833 48.9585L40.625 35.3335V62.5835Z" fill="#FF0000" stroke="#FF0A0A" stroke-width="2" stroke-linecap="round" stroke-linejoin="round"/>
</g>
<defs>
<clipPath id="clip0_221_2">
<rect width="100" height="100" fill="white"/>
</clipPath>
</defs>
</svg>
